<svg width="280" height="140" viewBox="0 0 280 140" fill="none" xmlns="http://www.w3.org/2000/svg">
<g clip-path="url(#clip0)">
<rect width="280" height="140" fill="white"/>
<mask id="mask0" mask-type="alpha" maskUnits="userSpaceOnUse" x="0" y="0" width="280" height="140">
<rect width="280" height="140" fill="#C4C4C4"/>
</mask>
<g mask="url(#mask0)">
<rect width="280" height="140" fill="#F4F5F7"/>
<rect width="50" height="140" fill="#4B5563"/>
<rect width="50" height="16" fill="#374151"/>
<circle cx="12" cy="8" r="3" fill="#6B7280"/>
<g filter="url(#filter0_dd)">
<path d="M120 24C120 21.7909 121.791 20 124 20H267C269.209 20 271 21.7909 271 24V140H120V24Z" fill="white"/>
<path d="M271 140.5H271.5V140V24C271.5 21.5147 269.485 19.5 267 19.5H124C121.515 19.5 119.5 21.5147 119.5 24V140V140.5H120H271Z" stroke="black" stroke-opacity="0.04"/>
</g>
<rect x="120" y="8" width="30" height="4" rx="2" fill="#6B7280"/>
<rect x="9" y="24" width="20" height="2" rx="1" fill="#6B7280"/>
<rect x="9" y="32" width="24" height="2" rx="1" fill="#6B7280"/>
<rect x="9" y="40" width="19" height="2" rx="1" fill="#6B7280"/>
<rect x="9" y="48" width="23" height="2" rx="1" fill="#6B7280"/>
<rect x="9" y="56" width="16" height="2" rx="1" fill="#6B7280"/>
</g>
<g filter="url(#filter1_d)">
<rect x="50" width="60" height="140" fill="white"/>
<rect x="49.5" y="-0.5" width="61" height="141" stroke="black" stroke-opacity="0.04"/>
</g>
<rect x="57" y="7" width="30" height="2" rx="1" fill="#9FA6B2"/>
<rect x="57" y="27" width="40" height="2" rx="1" fill="#9FA6B2"/>
<rect x="57" y="67" width="40" height="2" rx="1" fill="#9FA6B2"/>
<rect x="57" y="107" width="40" height="2" rx="1" fill="#9FA6B2"/>
<rect x="57" y="47" width="35" height="2" rx="1" fill="#9FA6B2"/>
<rect x="57" y="87" width="35" height="2" rx="1" fill="#9FA6B2"/>
<rect x="57" y="127" width="35" height="2" rx="1" fill="#9FA6B2"/>
<rect x="57" y="12" width="24" height="2" rx="1" fill="#D2D6DC"/>
<rect x="57" y="32" width="20" height="2" rx="1" fill="#D2D6DC"/>
<rect x="57" y="72" width="20" height="2" rx="1" fill="#D2D6DC"/>
<rect x="57" y="112" width="20" height="2" rx="1" fill="#D2D6DC"/>
<rect x="57" y="52" width="25" height="2" rx="1" fill="#D2D6DC"/>
<rect x="57" y="92" width="25" height="2" rx="1" fill="#D2D6DC"/>
<rect x="57" y="132" width="25" height="2" rx="1" fill="#D2D6DC"/>
<rect x="50" y="20" width="60" height="1" fill="#E5E7EB"/>
<rect x="50" y="60" width="60" height="1" fill="#E5E7EB"/>
<rect x="50" y="100" width="60" height="1" fill="#E5E7EB"/>
<rect x="50" y="40" width="60" height="1" fill="#E5E7EB"/>
<rect x="50" y="80" width="60" height="1" fill="#E5E7EB"/>
<rect x="50" y="120" width="60" height="1" fill="#E5E7EB"/>
</g>
<defs>
<filter id="filter0_dd" x="114" y="17" width="163" height="132" filterUnits="userSpaceOnUse" color-interpolation-filters="sRGB">
<feFlood flood-opacity="0" result="BackgroundImageFix"/>
<feColorMatrix in="SourceAlpha" type="matrix" values="0 0 0 0 0 0 0 0 0 0 0 0 0 0 0 0 0 0 127 0"/>
<feOffset dy="3"/>
<feGaussianBlur stdDeviation="2.5"/>
<feColorMatrix type="matrix" values="0 0 0 0 0 0 0 0 0 0 0 0 0 0 0 0 0 0 0.04 0"/>
<feBlend mode="normal" in2="BackgroundImageFix" result="effect1_dropShadow"/>
<feColorMatrix in="SourceAlpha" type="matrix" values="0 0 0 0 0 0 0 0 0 0 0 0 0 0 0 0 0 0 127 0"/>
<feOffset dy="1"/>
<feGaussianBlur stdDeviation="1"/>
<feColorMatrix type="matrix" values="0 0 0 0 0 0 0 0 0 0 0 0 0 0 0 0 0 0 0.03 0"/>
<feBlend mode="normal" in2="effect1_dropShadow" result="effect2_dropShadow"/>
<feBlend mode="normal" in="SourceGraphic" in2="effect2_dropShadow" result="shape"/>
</filter>
<filter id="filter1_d" x="47" y="-2" width="66" height="146" filterUnits="userSpaceOnUse" color-interpolation-filters="sRGB">
<feFlood flood-opacity="0" result="BackgroundImageFix"/>
<feColorMatrix in="SourceAlpha" type="matrix" values="0 0 0 0 0 0 0 0 0 0 0 0 0 0 0 0 0 0 127 0"/>
<feOffset dy="1"/>
<feGaussianBlur stdDeviation="1"/>
<feColorMatrix type="matrix" values="0 0 0 0 0 0 0 0 0 0 0 0 0 0 0 0 0 0 0.04 0"/>
<feBlend mode="normal" in2="BackgroundImageFix" result="effect1_dropShadow"/>
<feBlend mode="normal" in="SourceGraphic" in2="effect1_dropShadow" result="shape"/>
</filter>
<clipPath id="clip0">
<rect width="280" height="140" fill="white"/>
</clipPath>
</defs>
</svg>
