<svg width="280" height="140" viewBox="0 0 280 140" fill="none" xmlns="http://www.w3.org/2000/svg">
<rect width="280" height="140" fill="white"/>
<rect width="280" height="140" fill="#F4F5F7"/>
<rect width="280" height="140" fill="#F4F5F7"/>
<g filter="url(#filter0_dd)">
<rect x="30" y="53" width="220" height="32" rx="4" fill="white"/>
<rect x="29.5" y="52.5" width="221" height="33" rx="4.5" stroke="black" stroke-opacity="0.04"/>
</g>
<rect x="38" y="61" width="20" height="2" rx="1" fill="#D2D6DC"/>
<rect x="64" y="72" width="12" height="2" rx="1" fill="#F98080"/>
<path d="M38.7109 77H44.1953V75.7891H40.7109V75.7344L42.0898 74.332C43.6445 72.8398 44.0742 72.1133 44.0742 71.2109C44.0742 69.8711 42.9844 68.8906 41.375 68.8906C39.7891 68.8906 38.6641 69.875 38.6641 71.3945H40.043C40.043 70.5781 40.5586 70.0664 41.3555 70.0664C42.1172 70.0664 42.6836 70.5312 42.6836 71.2852C42.6836 71.9531 42.2773 72.4297 41.4883 73.2305L38.7109 75.9531V77ZM48.3242 77.1094C50.0156 77.1094 51.1953 75.9609 51.1953 74.3711C51.1953 72.832 50.125 71.7227 48.6719 71.7227C48.0234 71.7227 47.4492 71.9805 47.1523 72.332H47.1055L47.3359 70.2109H50.7773V69H46.1367L45.7188 73.125L47.0273 73.3398C47.2969 73.043 47.8047 72.8438 48.2852 72.8477C49.1641 72.8516 49.7969 73.5 49.793 74.4062C49.7969 75.3008 49.1797 75.9375 48.3242 75.9375C47.6016 75.9375 47.0195 75.4805 46.9688 74.8242H45.5625C45.6016 76.1523 46.7617 77.1094 48.3242 77.1094ZM56.7813 75.5C56.7852 76.4297 57.375 77.2227 58.4727 77.2227C59.5664 77.2227 60.168 76.4297 60.1641 75.5V75.0781C60.168 74.1406 59.582 73.3555 58.4727 73.3555C57.3906 73.3555 56.7852 74.1484 56.7813 75.0781V75.5ZM52.7148 70.9219C52.7188 71.8516 53.3086 72.6367 54.4102 72.6367C55.5 72.6367 56.1016 71.8594 56.0977 70.9219V70.5C56.1016 69.5625 55.5156 68.7773 54.4102 68.7773C53.332 68.7773 52.7188 69.5625 52.7148 70.5V70.9219ZM53.0664 77H54.0469L59.5469 69H58.5664L53.0664 77ZM57.8008 75.0781C57.8047 74.6641 57.9805 74.2461 58.4727 74.2461C58.9883 74.2461 59.1406 74.6641 59.1367 75.0781V75.5C59.1406 75.9141 58.9727 76.3242 58.4727 76.3242C57.9727 76.3242 57.8047 75.9102 57.8008 75.5V75.0781ZM53.7422 70.5C53.7461 70.0898 53.9141 69.668 54.4102 69.668C54.9258 69.668 55.0742 70.0859 55.0703 70.5V70.9219C55.0742 71.3359 54.9102 71.7461 54.4102 71.7461C53.9102 71.7461 53.7461 71.3359 53.7422 70.9219V70.5Z" fill="#6B7280"/>
<rect x="115" y="61" width="20" height="2" rx="1" fill="#D2D6DC"/>
<rect x="142" y="72" width="12" height="2" rx="1" fill="#31C48D"/>
<rect x="189" y="61" width="20" height="2" rx="1" fill="#D2D6DC"/>
<rect x="216" y="72" width="12" height="2" rx="1" fill="#31C48D"/>
<path d="M118.582 77.1094C120.293 77.1094 121.539 76.1289 121.535 74.7773C121.539 73.7773 120.914 73.0586 119.793 72.8984V72.8359C120.66 72.6484 121.242 72.0039 121.238 71.1055C121.242 69.8867 120.203 68.8906 118.605 68.8906C117.051 68.8906 115.848 69.8164 115.816 71.1562H117.211C117.234 70.4844 117.859 70.0664 118.598 70.0664C119.344 70.0664 119.84 70.5195 119.836 71.1914C119.84 71.8906 119.262 72.3555 118.434 72.3555H117.727V73.4727H118.434C119.445 73.4727 120.047 73.9805 120.043 74.7031C120.047 75.4102 119.434 75.8945 118.578 75.8945C117.773 75.8945 117.152 75.4766 117.117 74.8242H115.648C115.688 76.1758 116.895 77.1094 118.582 77.1094ZM125.833 77.1523C127.763 77.1563 128.915 75.6328 128.915 73.0078C128.915 70.3984 127.755 68.8906 125.833 68.8906C123.911 68.8906 122.755 70.3945 122.751 73.0078C122.751 75.6289 123.903 77.1523 125.833 77.1523ZM125.833 75.9297C124.837 75.9297 124.212 74.9297 124.216 73.0078C124.22 71.1016 124.841 70.0977 125.833 70.0977C126.829 70.0977 127.45 71.1016 127.454 73.0078C127.454 74.9297 126.833 75.9297 125.833 75.9297ZM134.49 75.5C134.494 76.4297 135.084 77.2227 136.182 77.2227C137.275 77.2227 137.877 76.4297 137.873 75.5V75.0781C137.877 74.1406 137.291 73.3555 136.182 73.3555C135.1 73.3555 134.494 74.1484 134.49 75.0781V75.5ZM130.424 70.9219C130.428 71.8516 131.018 72.6367 132.119 72.6367C133.209 72.6367 133.811 71.8594 133.807 70.9219V70.5C133.811 69.5625 133.225 68.7773 132.119 68.7773C131.041 68.7773 130.428 69.5625 130.424 70.5V70.9219ZM130.775 77H131.756L137.256 69H136.275L130.775 77ZM135.51 75.0781C135.514 74.6641 135.689 74.2461 136.182 74.2461C136.697 74.2461 136.85 74.6641 136.846 75.0781V75.5C136.85 75.9141 136.682 76.3242 136.182 76.3242C135.682 76.3242 135.514 75.9102 135.51 75.5V75.0781ZM131.451 70.5C131.455 70.0898 131.623 69.668 132.119 69.668C132.635 69.668 132.783 70.0859 132.779 70.5V70.9219C132.783 71.3359 132.619 71.7461 132.119 71.7461C131.619 71.7461 131.455 71.3359 131.451 70.9219V70.5Z" fill="#6B7280"/>
<path d="M189.566 75.5156H193.383V77H194.766V75.5156H195.789V74.3242H194.766V69H192.961L189.566 74.3633V75.5156ZM193.398 74.3242H191.051V74.2617L193.336 70.6406H193.398V74.3242ZM199.818 77.1094C201.51 77.1094 202.689 75.9609 202.689 74.3711C202.689 72.832 201.619 71.7227 200.166 71.7227C199.518 71.7227 198.943 71.9805 198.646 72.332H198.6L198.83 70.2109H202.271V69H197.631L197.213 73.125L198.521 73.3398C198.791 73.043 199.299 72.8438 199.779 72.8477C200.658 72.8516 201.291 73.5 201.287 74.4062C201.291 75.3008 200.674 75.9375 199.818 75.9375C199.096 75.9375 198.514 75.4805 198.463 74.8242H197.057C197.096 76.1523 198.256 77.1094 199.818 77.1094ZM208.275 75.5C208.279 76.4297 208.869 77.2227 209.967 77.2227C211.061 77.2227 211.662 76.4297 211.658 75.5V75.0781C211.662 74.1406 211.076 73.3555 209.967 73.3555C208.885 73.3555 208.279 74.1484 208.275 75.0781V75.5ZM204.209 70.9219C204.213 71.8516 204.803 72.6367 205.904 72.6367C206.994 72.6367 207.596 71.8594 207.592 70.9219V70.5C207.596 69.5625 207.01 68.7773 205.904 68.7773C204.826 68.7773 204.213 69.5625 204.209 70.5V70.9219ZM204.561 77H205.541L211.041 69H210.061L204.561 77ZM209.295 75.0781C209.299 74.6641 209.475 74.2461 209.967 74.2461C210.482 74.2461 210.635 74.6641 210.631 75.0781V75.5C210.635 75.9141 210.467 76.3242 209.967 76.3242C209.467 76.3242 209.299 75.9102 209.295 75.5V75.0781ZM205.236 70.5C205.24 70.0898 205.408 69.668 205.904 69.668C206.42 69.668 206.568 70.0859 206.564 70.5V70.9219C206.568 71.3359 206.404 71.7461 205.904 71.7461C205.404 71.7461 205.24 71.3359 205.236 70.9219V70.5Z" fill="#6B7280"/>
<rect x="102" y="53" width="1" height="32" fill="#E5E7EB"/>
<rect x="178" y="53" width="1" height="32" fill="#E5E7EB"/>
<defs>
<filter id="filter0_dd" x="24" y="50" width="232" height="44" filterUnits="userSpaceOnUse" color-interpolation-filters="sRGB">
<feFlood flood-opacity="0" result="BackgroundImageFix"/>
<feColorMatrix in="SourceAlpha" type="matrix" values="0 0 0 0 0 0 0 0 0 0 0 0 0 0 0 0 0 0 127 0"/>
<feOffset dy="3"/>
<feGaussianBlur stdDeviation="2.5"/>
<feColorMatrix type="matrix" values="0 0 0 0 0 0 0 0 0 0 0 0 0 0 0 0 0 0 0.04 0"/>
<feBlend mode="normal" in2="BackgroundImageFix" result="effect1_dropShadow"/>
<feColorMatrix in="SourceAlpha" type="matrix" values="0 0 0 0 0 0 0 0 0 0 0 0 0 0 0 0 0 0 127 0"/>
<feOffset dy="1"/>
<feGaussianBlur stdDeviation="1"/>
<feColorMatrix type="matrix" values="0 0 0 0 0 0 0 0 0 0 0 0 0 0 0 0 0 0 0.03 0"/>
<feBlend mode="normal" in2="effect1_dropShadow" result="effect2_dropShadow"/>
<feBlend mode="normal" in="SourceGraphic" in2="effect2_dropShadow" result="shape"/>
</filter>
</defs>
</svg>
