<svg width="280" height="140" viewBox="0 0 280 140" fill="none" xmlns="http://www.w3.org/2000/svg">
<rect width="280" height="140" fill="white"/>
<rect width="280" height="140" fill="#F4F5F7"/>
<rect x="226" y="7" width="24" height="10" rx="3" fill="#E5E7EB"/>
<rect x="232" y="11" width="12" height="2" rx="1" fill="#9FA6B2"/>
<rect x="122" y="11" width="16" height="2" rx="1" fill="#D2D6DC"/>
<rect x="148" y="11" width="16" height="2" rx="1" fill="#D2D6DC"/>
<rect x="174" y="11" width="16" height="2" rx="1" fill="#D2D6DC"/>
<rect x="200" y="11" width="16" height="2" rx="1" fill="#D2D6DC"/>
<circle cx="34" cy="12" r="4" fill="#6B7280"/>
<g filter="url(#filter0_dd)">
<path d="M122 26C122 23.7909 123.791 22 126 22H151L156 17L161 22H246C248.209 22 250 23.7909 250 26V73C250 75.2091 248.209 77 246 77H126C123.791 77 122 75.2091 122 73V26Z" fill="white"/>
<path d="M156.354 16.6464L156 16.2929L155.646 16.6464L150.793 21.5H126C123.515 21.5 121.5 23.5147 121.5 26V73C121.5 75.4853 123.515 77.5 126 77.5H246C248.485 77.5 250.5 75.4853 250.5 73V26C250.5 23.5147 248.485 21.5 246 21.5H161.207L156.354 16.6464Z" stroke="black" stroke-opacity="0.04"/>
</g>
<rect x="130" y="30" width="31" height="2" rx="1" fill="#6B7280"/>
<rect x="186" y="30" width="24" height="2" rx="1" fill="#6B7280"/>
<rect x="130" y="46" width="32" height="2" rx="1" fill="#6B7280"/>
<rect x="186" y="46" width="22" height="2" rx="1" fill="#6B7280"/>
<rect x="130" y="62" width="26" height="2" rx="1" fill="#6B7280"/>
<rect x="186" y="62" width="28" height="2" rx="1" fill="#6B7280"/>
<rect x="130" y="35" width="40" height="2" rx="1" fill="#D2D6DC"/>
<rect x="186" y="35" width="38" height="2" rx="1" fill="#D2D6DC"/>
<rect x="130" y="51" width="42" height="2" rx="1" fill="#D2D6DC"/>
<rect x="186" y="51" width="46" height="2" rx="1" fill="#D2D6DC"/>
<rect x="130" y="67" width="40" height="2" rx="1" fill="#D2D6DC"/>
<rect x="186" y="67" width="36" height="2" rx="1" fill="#D2D6DC"/>
<defs>
<filter id="filter0_dd" x="116" y="13.5859" width="140" height="72.4142" filterUnits="userSpaceOnUse" color-interpolation-filters="sRGB">
<feFlood flood-opacity="0" result="BackgroundImageFix"/>
<feColorMatrix in="SourceAlpha" type="matrix" values="0 0 0 0 0 0 0 0 0 0 0 0 0 0 0 0 0 0 127 0"/>
<feOffset dy="3"/>
<feGaussianBlur stdDeviation="2.5"/>
<feColorMatrix type="matrix" values="0 0 0 0 0 0 0 0 0 0 0 0 0 0 0 0 0 0 0.04 0"/>
<feBlend mode="normal" in2="BackgroundImageFix" result="effect1_dropShadow"/>
<feColorMatrix in="SourceAlpha" type="matrix" values="0 0 0 0 0 0 0 0 0 0 0 0 0 0 0 0 0 0 127 0"/>
<feOffset dy="1"/>
<feGaussianBlur stdDeviation="1"/>
<feColorMatrix type="matrix" values="0 0 0 0 0 0 0 0 0 0 0 0 0 0 0 0 0 0 0.03 0"/>
<feBlend mode="normal" in2="effect1_dropShadow" result="effect2_dropShadow"/>
<feBlend mode="normal" in="SourceGraphic" in2="effect2_dropShadow" result="shape"/>
</filter>
</defs>
</svg>
