<svg width="280" height="140" viewBox="0 0 280 140" fill="none" xmlns="http://www.w3.org/2000/svg">
<rect width="280" height="140" fill="white"/>
<rect width="280" height="140" fill="#F4F5F7"/>
<g filter="url(#filter0_d)">
<rect x="69" y="55" width="141" height="30" rx="6" fill="white"/>
<rect x="68.5" y="54.5" width="142" height="31" rx="6.5" stroke="black" stroke-opacity="0.04"/>
</g>
<rect x="139" y="55" width="1" height="30" fill="#E5E7EB"/>
<path d="M82.3431 75H86.4646C88.7963 75 89.9397 73.8118 89.9397 72.2259C89.9397 70.6847 88.846 69.7798 87.7622 69.7251V69.6257C88.7565 69.392 89.542 68.696 89.542 67.4581C89.542 65.9418 88.4482 64.8182 86.2409 64.8182H82.3431V75ZM84.1876 73.4588V70.4759H86.221C87.3595 70.4759 88.0654 71.1719 88.0654 72.0817C88.0654 72.892 87.5086 73.4588 86.1713 73.4588H84.1876ZM84.1876 69.1484V66.3395H86.0519C87.1357 66.3395 87.6975 66.9112 87.6975 67.6967C87.6975 68.5916 86.9717 69.1484 86.0122 69.1484H84.1876ZM96.3319 71.7884C96.3319 72.9517 95.5017 73.5284 94.7062 73.5284C93.8412 73.5284 93.2645 72.9169 93.2645 71.9474V67.3636H91.4648V72.2259C91.4648 74.0604 92.5088 75.0994 94.0102 75.0994C95.1537 75.0994 95.9591 74.4979 96.3071 73.6428H96.3866V75H98.1317V67.3636H96.3319V71.7884ZM103.796 67.3636H102.289V65.5341H100.489V67.3636H99.4056V68.7557H100.489V73.0014C100.479 74.4382 101.524 75.1442 102.876 75.1044C103.388 75.0895 103.741 74.9901 103.935 74.9254L103.631 73.5185C103.532 73.5433 103.328 73.5881 103.104 73.5881C102.652 73.5881 102.289 73.429 102.289 72.7031V68.7557H103.796V67.3636ZM109.114 67.3636H107.608V65.5341H105.808V67.3636H104.724V68.7557H105.808V73.0014C105.798 74.4382 106.842 75.1442 108.194 75.1044C108.706 75.0895 109.059 74.9901 109.253 74.9254L108.95 73.5185C108.85 73.5433 108.647 73.5881 108.423 73.5881C107.97 73.5881 107.608 73.429 107.608 72.7031V68.7557H109.114V67.3636ZM113.868 75.1491C116.105 75.1491 117.527 73.5732 117.527 71.2116C117.527 68.8452 116.105 67.2642 113.868 67.2642C111.631 67.2642 110.209 68.8452 110.209 71.2116C110.209 73.5732 111.631 75.1491 113.868 75.1491ZM113.878 73.7074C112.64 73.7074 112.033 72.6037 112.033 71.2067C112.033 69.8097 112.64 68.6911 113.878 68.6911C115.096 68.6911 115.703 69.8097 115.703 71.2067C115.703 72.6037 115.096 73.7074 113.878 73.7074ZM120.854 70.5256C120.854 69.4219 121.521 68.7855 122.47 68.7855C123.4 68.7855 123.957 69.397 123.957 70.4162V75H125.756V70.1378C125.761 68.3082 124.717 67.2642 123.141 67.2642C121.998 67.2642 121.212 67.8111 120.864 68.6612H120.775V67.3636H119.055V75H120.854V70.5256Z" fill="#6B7280"/>
<path d="M153.343 75H157.465C159.796 75 160.94 73.8118 160.94 72.2259C160.94 70.6847 159.846 69.7798 158.762 69.7251V69.6257C159.756 69.392 160.542 68.696 160.542 67.4581C160.542 65.9418 159.448 64.8182 157.241 64.8182H153.343V75ZM155.188 73.4588V70.4759H157.221C158.359 70.4759 159.065 71.1719 159.065 72.0817C159.065 72.892 158.509 73.4588 157.171 73.4588H155.188ZM155.188 69.1484V66.3395H157.052C158.136 66.3395 158.698 66.9112 158.698 67.6967C158.698 68.5916 157.972 69.1484 157.012 69.1484H155.188ZM167.332 71.7884C167.332 72.9517 166.502 73.5284 165.706 73.5284C164.841 73.5284 164.264 72.9169 164.264 71.9474V67.3636H162.465V72.2259C162.465 74.0604 163.509 75.0994 165.01 75.0994C166.154 75.0994 166.959 74.4979 167.307 73.6428H167.387V75H169.132V67.3636H167.332V71.7884ZM174.796 67.3636H173.289V65.5341H171.489V67.3636H170.406V68.7557H171.489V73.0014C171.479 74.4382 172.524 75.1442 173.876 75.1044C174.388 75.0895 174.741 74.9901 174.935 74.9254L174.631 73.5185C174.532 73.5433 174.328 73.5881 174.104 73.5881C173.652 73.5881 173.289 73.429 173.289 72.7031V68.7557H174.796V67.3636ZM180.114 67.3636H178.608V65.5341H176.808V67.3636H175.724V68.7557H176.808V73.0014C176.798 74.4382 177.842 75.1442 179.194 75.1044C179.706 75.0895 180.059 74.9901 180.253 74.9254L179.95 73.5185C179.85 73.5433 179.647 73.5881 179.423 73.5881C178.97 73.5881 178.608 73.429 178.608 72.7031V68.7557H180.114V67.3636ZM184.868 75.1491C187.105 75.1491 188.527 73.5732 188.527 71.2116C188.527 68.8452 187.105 67.2642 184.868 67.2642C182.631 67.2642 181.209 68.8452 181.209 71.2116C181.209 73.5732 182.631 75.1491 184.868 75.1491ZM184.878 73.7074C183.64 73.7074 183.033 72.6037 183.033 71.2067C183.033 69.8097 183.64 68.6911 184.878 68.6911C186.096 68.6911 186.703 69.8097 186.703 71.2067C186.703 72.6037 186.096 73.7074 184.878 73.7074ZM191.854 70.5256C191.854 69.4219 192.521 68.7855 193.47 68.7855C194.4 68.7855 194.957 69.397 194.957 70.4162V75H196.756V70.1378C196.761 68.3082 195.717 67.2642 194.141 67.2642C192.998 67.2642 192.212 67.8111 191.864 68.6612H191.775V67.3636H190.055V75H191.854V70.5256Z" fill="#6B7280"/>
<defs>
<filter id="filter0_d" x="66" y="53" width="147" height="36" filterUnits="userSpaceOnUse" color-interpolation-filters="sRGB">
<feFlood flood-opacity="0" result="BackgroundImageFix"/>
<feColorMatrix in="SourceAlpha" type="matrix" values="0 0 0 0 0 0 0 0 0 0 0 0 0 0 0 0 0 0 127 0"/>
<feOffset dy="1"/>
<feGaussianBlur stdDeviation="1"/>
<feColorMatrix type="matrix" values="0 0 0 0 0 0 0 0 0 0 0 0 0 0 0 0 0 0 0.04 0"/>
<feBlend mode="normal" in2="BackgroundImageFix" result="effect1_dropShadow"/>
<feBlend mode="normal" in="SourceGraphic" in2="effect1_dropShadow" result="shape"/>
</filter>
</defs>
</svg>
