<svg width="280" height="140" viewBox="0 0 280 140" fill="none" xmlns="http://www.w3.org/2000/svg">
<g clip-path="url(#clip0)">
<rect width="280" height="140" fill="white"/>
<rect width="280" height="140" fill="#F4F5F7"/>
<path d="M0 0H280V90H0V0Z" fill="#4B5563"/>
<rect x="62" y="6" width="8" height="8" rx="4" fill="white"/>
<rect x="202" y="10" width="16" height="2" rx="1" fill="#9FA6B2"/>
<rect x="178" y="10" width="16" height="2" rx="1" fill="#9FA6B2"/>
<rect x="154" y="10" width="16" height="2" rx="1" fill="#9FA6B2"/>
<g filter="url(#filter0_dd)">
<path d="M158 53H214C216.209 53 218 54.7909 218 57V122C218 124.209 216.209 126 214 126H158V53Z" fill="white"/>
<path d="M158 52.5H157.5V53V126V126.5H158H214C216.485 126.5 218.5 124.485 218.5 122V57C218.5 54.5147 216.485 52.5 214 52.5H158Z" stroke="black" stroke-opacity="0.04"/>
</g>
<g filter="url(#filter1_dd)">
<path d="M62 57C62 54.7909 63.7909 53 66 53H122V126H66C63.7909 126 62 124.209 62 122V57Z" fill="white"/>
<path d="M122.5 53V52.5H122H66C63.5147 52.5 61.5 54.5147 61.5 57V122C61.5 124.485 63.5147 126.5 66 126.5H122H122.5V126V53Z" stroke="black" stroke-opacity="0.04"/>
</g>
<g filter="url(#filter2_dd)">
<rect x="108" y="47" width="64" height="85" rx="4" fill="white"/>
<rect x="107.5" y="46.5" width="65" height="86" rx="4.5" stroke="black" stroke-opacity="0.04"/>
</g>
<rect x="95" y="23" width="92" height="3" rx="1.5" fill="white"/>
<rect x="93" y="31" width="95" height="2" rx="1" fill="#9FA6B2"/>
<rect x="99" y="37" width="84" height="2" rx="1" fill="#9FA6B2"/>
<rect x="129" y="55" width="24" height="2" rx="1" fill="#6B7280"/>
<rect x="187" y="61" width="16" height="2" rx="1" fill="#6B7280"/>
<rect x="77" y="61" width="16" height="2" rx="1" fill="#6B7280"/>
<path d="M125.667 72H126.401L126.405 71.1211C128.057 71 129.002 70.0547 129.002 68.7891C129.002 67.3477 127.717 66.7891 126.702 66.5391L126.417 66.4648L126.424 63.957C127.155 64.0547 127.655 64.4609 127.729 65.1016H128.893C128.862 63.9102 127.877 63.0195 126.428 62.9023L126.432 62H125.698L125.694 62.9102C124.292 63.0508 123.264 63.9258 123.264 65.1875C123.264 66.3008 124.061 66.9531 125.346 67.3008L125.682 67.3906L125.674 70.0508C124.913 69.957 124.323 69.543 124.26 68.7891H123.049C123.124 70.1367 124.096 71.0039 125.67 71.1211L125.667 72ZM126.409 70.0508L126.417 67.5937C127.209 67.8125 127.807 68.1016 127.807 68.7773C127.807 69.4609 127.237 69.9414 126.409 70.0508ZM125.686 66.2695C125.104 66.0977 124.463 65.7891 124.467 65.1172C124.467 64.5312 124.932 64.0742 125.69 63.9609L125.686 66.2695ZM130.335 71H135.601V69.9648H132V69.9062L133.589 68.2422C135.054 66.7617 135.472 66.0547 135.472 65.1602C135.472 63.875 134.425 62.8906 132.917 62.8906C131.421 62.8906 130.328 63.8594 130.328 65.3203H131.48C131.476 64.4609 132.031 63.8984 132.894 63.8984C133.707 63.8984 134.324 64.3984 134.324 65.1953C134.324 65.9023 133.902 66.4102 133.042 67.3203L130.335 70.125V71ZM139.867 71.1328C141.714 71.1328 142.796 69.625 142.796 67.0039C142.796 64.4023 141.699 62.8906 139.867 62.8906C138.031 62.8906 136.937 64.3984 136.933 67.0039C136.933 69.6211 138.015 71.1289 139.867 71.1328ZM139.867 70.0898C138.785 70.0898 138.132 69.0039 138.132 67.0039C138.136 65.0117 138.789 63.9141 139.867 63.9141C140.941 63.9141 141.597 65.0117 141.597 67.0039C141.597 69.0039 140.945 70.0898 139.867 70.0898ZM146.967 71.1328C148.815 71.1328 149.897 69.625 149.897 67.0039C149.897 64.4023 148.799 62.8906 146.967 62.8906C145.131 62.8906 144.038 64.3984 144.034 67.0039C144.034 69.6211 145.116 71.1289 146.967 71.1328ZM146.967 70.0898C145.885 70.0898 145.233 69.0039 145.233 67.0039C145.237 65.0117 145.889 63.9141 146.967 63.9141C148.042 63.9141 148.698 65.0117 148.698 67.0039C148.698 69.0039 148.045 70.0898 146.967 70.0898Z" fill="#4B5563"/>
<rect x="153" y="66" width="8" height="2" rx="1" fill="#D2D6DC"/>
<path d="M182.605 77.8182H183.206L183.21 77.0991C184.561 77 185.335 76.2266 185.335 75.1911C185.335 74.0117 184.283 73.5547 183.452 73.3501L183.219 73.2894L183.225 71.2376C183.823 71.3175 184.232 71.6499 184.293 72.174H185.245C185.22 71.1992 184.414 70.4705 183.229 70.3746L183.232 69.6364H182.631L182.628 70.381C181.48 70.4961 180.64 71.212 180.64 72.2443C180.64 73.1552 181.292 73.6889 182.343 73.9734L182.618 74.0469L182.612 76.2234C181.989 76.1467 181.506 75.8079 181.455 75.1911H180.464C180.525 76.2937 181.321 77.0032 182.609 77.0991L182.605 77.8182ZM183.213 76.2234L183.219 74.2131C183.868 74.392 184.357 74.6286 184.357 75.1815C184.357 75.7408 183.89 76.1339 183.213 76.2234ZM182.621 73.1296C182.145 72.989 181.621 72.7365 181.624 72.1868C181.624 71.7074 182.005 71.3335 182.625 71.2408L182.621 73.1296ZM188.586 77.0895C189.903 77.0895 190.842 76.1594 190.839 74.8842C190.842 73.6186 189.96 72.6982 188.768 72.6982C188.282 72.6982 187.832 72.8835 187.576 73.1328H187.538L187.745 71.3015H190.523V70.4545H186.924L186.557 73.7528L187.461 73.8871C187.707 73.6665 188.148 73.5163 188.544 73.5163C189.321 73.5227 189.884 74.1044 189.884 74.9034C189.884 75.6896 189.337 76.2585 188.586 76.2585C187.953 76.2585 187.451 75.8558 187.4 75.2933H186.441C186.48 76.3352 187.384 77.0895 188.586 77.0895ZM194.285 77.1087C195.797 77.1087 196.682 75.875 196.682 73.7305C196.682 71.6019 195.784 70.3651 194.285 70.3651C192.783 70.3651 191.888 71.5987 191.885 73.7305C191.885 75.8718 192.77 77.1055 194.285 77.1087ZM194.285 76.2553C193.4 76.2553 192.866 75.3668 192.866 73.7305C192.869 72.1005 193.403 71.2024 194.285 71.2024C195.164 71.2024 195.701 72.1005 195.701 73.7305C195.701 75.3668 195.167 76.2553 194.285 76.2553ZM200.095 77.1087C201.607 77.1087 202.492 75.875 202.492 73.7305C202.492 71.6019 201.594 70.3651 200.095 70.3651C198.593 70.3651 197.698 71.5987 197.695 73.7305C197.695 75.8718 198.58 77.1055 200.095 77.1087ZM200.095 76.2553C199.21 76.2553 198.676 75.3668 198.676 73.7305C198.679 72.1005 199.213 71.2024 200.095 71.2024C200.974 71.2024 201.511 72.1005 201.511 73.7305C201.511 75.3668 200.977 76.2553 200.095 76.2553Z" fill="#4B5563"/>
<rect x="205" y="73" width="6" height="2" rx="1" fill="#D2D6DC"/>
<path d="M73.769 77.8182H74.3699L74.3731 77.0991C75.725 77 76.4984 76.2266 76.4984 75.1911C76.4984 74.0117 75.447 73.5547 74.616 73.3501L74.3827 73.2894L74.3891 71.2376C74.9867 71.3175 75.3958 71.6499 75.4565 72.174H76.409C76.3834 71.1992 75.578 70.4705 74.3923 70.3746L74.3955 69.6364H73.7946L73.7914 70.381C72.644 70.4961 71.8035 71.212 71.8035 72.2443C71.8035 73.1552 72.4555 73.6889 73.507 73.9734L73.7818 74.0469L73.7754 76.2234C73.1522 76.1467 72.6696 75.8079 72.6185 75.1911H71.6277C71.6884 76.2937 72.4842 77.0032 73.7722 77.0991L73.769 77.8182ZM74.3763 76.2234L74.3827 74.2131C75.0315 74.392 75.5205 74.6286 75.5205 75.1815C75.5205 75.7408 75.0538 76.1339 74.3763 76.2234ZM73.785 73.1296C73.3088 72.989 72.7847 72.7365 72.7879 72.1868C72.7879 71.7074 73.1682 71.3335 73.7882 71.2408L73.785 73.1296ZM80.0724 70.4545H79.1104L77.4772 71.522V72.468L79.0433 71.4453H79.0816V77H80.0724V70.4545ZM84.1218 77.1087C85.6335 77.1087 86.5188 75.875 86.5188 73.7305C86.5188 71.6019 85.6207 70.3651 84.1218 70.3651C82.6196 70.3651 81.7247 71.5987 81.7215 73.7305C81.7215 75.8718 82.6068 77.1055 84.1218 77.1087ZM84.1218 76.2553C83.2365 76.2553 82.7027 75.3668 82.7027 73.7305C82.7059 72.1005 83.2397 71.2024 84.1218 71.2024C85.0007 71.2024 85.5376 72.1005 85.5376 73.7305C85.5376 75.3668 85.0039 76.2553 84.1218 76.2553ZM89.9313 77.1087C91.443 77.1087 92.3283 75.875 92.3283 73.7305C92.3283 71.6019 91.4303 70.3651 89.9313 70.3651C88.4292 70.3651 87.5343 71.5987 87.5311 73.7305C87.5311 75.8718 88.4164 77.1055 89.9313 77.1087ZM89.9313 76.2553C89.046 76.2553 88.5123 75.3668 88.5123 73.7305C88.5155 72.1005 89.0492 71.2024 89.9313 71.2024C90.8102 71.2024 91.3472 72.1005 91.3472 73.7305C91.3472 75.3668 90.8134 76.2553 89.9313 76.2553Z" fill="#4B5563"/>
<rect x="95" y="73" width="6" height="2" rx="1" fill="#D2D6DC"/>
<g filter="url(#filter3_dd)">
<rect x="117" y="113" width="46" height="10" rx="2" fill="#4B5563"/>
</g>
<rect x="178" y="108" width="34" height="10" rx="2" fill="#E5E7EB"/>
<rect x="68" y="108" width="34" height="10" rx="2" fill="#E5E7EB"/>
<rect x="131" y="117" width="18" height="2" rx="1" fill="#6B7280"/>
<rect x="186" y="112" width="18" height="2" rx="1" fill="#9FA6B2"/>
<rect x="76" y="112" width="18" height="2" rx="1" fill="#9FA6B2"/>
<rect x="123" y="82" width="32" height="2" rx="1" fill="#D2D6DC"/>
<rect x="123" y="89" width="40" height="2" rx="1" fill="#D2D6DC"/>
<rect x="123" y="96" width="35" height="2" rx="1" fill="#D2D6DC"/>
<rect x="123" y="103" width="27" height="2" rx="1" fill="#D2D6DC"/>
<circle cx="118" cy="97" r="1" fill="#D2D6DC"/>
<circle cx="118" cy="104" r="1" fill="#D2D6DC"/>
<circle cx="118" cy="90" r="1" fill="#D2D6DC"/>
<circle cx="118" cy="83" r="1" fill="#D2D6DC"/>
<rect x="184" y="86" width="24" height="2" rx="1" fill="#D2D6DC"/>
<rect x="184" y="92" width="28" height="2" rx="1" fill="#D2D6DC"/>
<rect x="184" y="98" width="19" height="2" rx="1" fill="#D2D6DC"/>
<circle cx="179" cy="99" r="1" fill="#D2D6DC"/>
<circle cx="179" cy="93" r="1" fill="#D2D6DC"/>
<circle cx="179" cy="87" r="1" fill="#D2D6DC"/>
<rect x="74" y="86" width="24" height="2" rx="1" fill="#D2D6DC"/>
<rect x="74" y="92" width="28" height="2" rx="1" fill="#D2D6DC"/>
<rect x="74" y="98" width="19" height="2" rx="1" fill="#D2D6DC"/>
<circle cx="69" cy="99" r="1" fill="#D2D6DC"/>
<circle cx="69" cy="93" r="1" fill="#D2D6DC"/>
<circle cx="69" cy="87" r="1" fill="#D2D6DC"/>
</g>
<defs>
<filter id="filter0_dd" x="152" y="50" width="72" height="85" filterUnits="userSpaceOnUse" color-interpolation-filters="sRGB">
<feFlood flood-opacity="0" result="BackgroundImageFix"/>
<feColorMatrix in="SourceAlpha" type="matrix" values="0 0 0 0 0 0 0 0 0 0 0 0 0 0 0 0 0 0 127 0"/>
<feOffset dy="3"/>
<feGaussianBlur stdDeviation="2.5"/>
<feColorMatrix type="matrix" values="0 0 0 0 0 0 0 0 0 0 0 0 0 0 0 0 0 0 0.04 0"/>
<feBlend mode="normal" in2="BackgroundImageFix" result="effect1_dropShadow"/>
<feColorMatrix in="SourceAlpha" type="matrix" values="0 0 0 0 0 0 0 0 0 0 0 0 0 0 0 0 0 0 127 0"/>
<feOffset dy="1"/>
<feGaussianBlur stdDeviation="1"/>
<feColorMatrix type="matrix" values="0 0 0 0 0 0 0 0 0 0 0 0 0 0 0 0 0 0 0.03 0"/>
<feBlend mode="normal" in2="effect1_dropShadow" result="effect2_dropShadow"/>
<feBlend mode="normal" in="SourceGraphic" in2="effect2_dropShadow" result="shape"/>
</filter>
<filter id="filter1_dd" x="56" y="50" width="72" height="85" filterUnits="userSpaceOnUse" color-interpolation-filters="sRGB">
<feFlood flood-opacity="0" result="BackgroundImageFix"/>
<feColorMatrix in="SourceAlpha" type="matrix" values="0 0 0 0 0 0 0 0 0 0 0 0 0 0 0 0 0 0 127 0"/>
<feOffset dy="3"/>
<feGaussianBlur stdDeviation="2.5"/>
<feColorMatrix type="matrix" values="0 0 0 0 0 0 0 0 0 0 0 0 0 0 0 0 0 0 0.04 0"/>
<feBlend mode="normal" in2="BackgroundImageFix" result="effect1_dropShadow"/>
<feColorMatrix in="SourceAlpha" type="matrix" values="0 0 0 0 0 0 0 0 0 0 0 0 0 0 0 0 0 0 127 0"/>
<feOffset dy="1"/>
<feGaussianBlur stdDeviation="1"/>
<feColorMatrix type="matrix" values="0 0 0 0 0 0 0 0 0 0 0 0 0 0 0 0 0 0 0.03 0"/>
<feBlend mode="normal" in2="effect1_dropShadow" result="effect2_dropShadow"/>
<feBlend mode="normal" in="SourceGraphic" in2="effect2_dropShadow" result="shape"/>
</filter>
<filter id="filter2_dd" x="102" y="44" width="76" height="97" filterUnits="userSpaceOnUse" color-interpolation-filters="sRGB">
<feFlood flood-opacity="0" result="BackgroundImageFix"/>
<feColorMatrix in="SourceAlpha" type="matrix" values="0 0 0 0 0 0 0 0 0 0 0 0 0 0 0 0 0 0 127 0"/>
<feOffset dy="3"/>
<feGaussianBlur stdDeviation="2.5"/>
<feColorMatrix type="matrix" values="0 0 0 0 0 0 0 0 0 0 0 0 0 0 0 0 0 0 0.04 0"/>
<feBlend mode="normal" in2="BackgroundImageFix" result="effect1_dropShadow"/>
<feColorMatrix in="SourceAlpha" type="matrix" values="0 0 0 0 0 0 0 0 0 0 0 0 0 0 0 0 0 0 127 0"/>
<feOffset dy="1"/>
<feGaussianBlur stdDeviation="1"/>
<feColorMatrix type="matrix" values="0 0 0 0 0 0 0 0 0 0 0 0 0 0 0 0 0 0 0.03 0"/>
<feBlend mode="normal" in2="effect1_dropShadow" result="effect2_dropShadow"/>
<feBlend mode="normal" in="SourceGraphic" in2="effect2_dropShadow" result="shape"/>
</filter>
<filter id="filter3_dd" x="114" y="111" width="52" height="16" filterUnits="userSpaceOnUse" color-interpolation-filters="sRGB">
<feFlood flood-opacity="0" result="BackgroundImageFix"/>
<feColorMatrix in="SourceAlpha" type="matrix" values="0 0 0 0 0 0 0 0 0 0 0 0 0 0 0 0 0 0 127 0"/>
<feOffset dy="1"/>
<feGaussianBlur stdDeviation="1"/>
<feColorMatrix type="matrix" values="0 0 0 0 0 0 0 0 0 0 0 0 0 0 0 0 0 0 0.06 0"/>
<feBlend mode="normal" in2="BackgroundImageFix" result="effect1_dropShadow"/>
<feColorMatrix in="SourceAlpha" type="matrix" values="0 0 0 0 0 0 0 0 0 0 0 0 0 0 0 0 0 0 127 0"/>
<feOffset dy="1"/>
<feGaussianBlur stdDeviation="1.5"/>
<feColorMatrix type="matrix" values="0 0 0 0 0 0 0 0 0 0 0 0 0 0 0 0 0 0 0.1 0"/>
<feBlend mode="normal" in2="effect1_dropShadow" result="effect2_dropShadow"/>
<feBlend mode="normal" in="SourceGraphic" in2="effect2_dropShadow" result="shape"/>
</filter>
<clipPath id="clip0">
<rect width="280" height="140" fill="white"/>
</clipPath>
</defs>
</svg>
