<svg width="280" height="140" viewBox="0 0 280 140" fill="none" xmlns="http://www.w3.org/2000/svg">
<g clip-path="url(#clip0)">
<rect width="280" height="140" fill="white"/>
<rect y="4" width="280" height="140" fill="#F4F5F7"/>
<rect x="30" y="48" width="68" height="2" rx="1" fill="#D2D6DC"/>
<rect x="30" y="52" width="58" height="2" rx="1" fill="#D2D6DC"/>
<rect x="30" y="42" width="28" height="3" rx="1.5" fill="#6B7280"/>
<rect x="106" y="42" width="28" height="2" rx="1" fill="#9FA6B2"/>
<g filter="url(#filter0_d)">
<rect x="106" y="47" width="68" height="8" rx="2" fill="white"/>
<rect x="105.5" y="46.5" width="69" height="9" rx="2.5" stroke="black" stroke-opacity="0.08"/>
</g>
<rect x="106" y="60" width="28" height="2" rx="1" fill="#9FA6B2"/>
<g filter="url(#filter1_d)">
<rect x="106" y="65" width="144" height="8" rx="2" fill="white"/>
<rect x="105.5" y="64.5" width="145" height="9" rx="2.5" stroke="black" stroke-opacity="0.08"/>
</g>
<rect x="106" y="78" width="28" height="2" rx="1" fill="#9FA6B2"/>
<g filter="url(#filter2_d)">
<rect x="106" y="83" width="144" height="16" rx="2" fill="white"/>
<rect x="105.5" y="82.5" width="145" height="17" rx="2.5" stroke="black" stroke-opacity="0.08"/>
</g>
<rect x="182" y="42" width="31" height="2" rx="1" fill="#9FA6B2"/>
<g filter="url(#filter3_d)">
<rect x="182" y="47" width="68" height="8" rx="2" fill="white"/>
<rect x="181.5" y="46.5" width="69" height="9" rx="2.5" stroke="black" stroke-opacity="0.08"/>
</g>
<rect x="30" y="34" width="220" height="1" fill="#D2D6DC"/>
<g filter="url(#filter4_d)">
<rect width="280" height="16" fill="white"/>
<rect x="-0.5" y="-0.5" width="281" height="17" stroke="black" stroke-opacity="0.04"/>
</g>
<rect x="156" y="7" width="16" height="2" rx="1" fill="#9FA6B2"/>
<rect x="182" y="7" width="16" height="2" rx="1" fill="#9FA6B2"/>
<rect x="208" y="7" width="16" height="2" rx="1" fill="#9FA6B2"/>
<rect x="234" y="7" width="16" height="2" rx="1" fill="#9FA6B2"/>
<circle cx="33" cy="8" r="3" fill="#6B7280"/>
<rect x="30" y="24" width="30" height="4" rx="2" fill="#6B7280"/>
<rect x="30" y="121" width="68" height="2" rx="1" fill="#D2D6DC"/>
<rect x="30" y="125" width="58" height="2" rx="1" fill="#D2D6DC"/>
<rect x="30" y="115" width="28" height="3" rx="1.5" fill="#6B7280"/>
<rect x="106" y="115" width="28" height="2" rx="1" fill="#9FA6B2"/>
<g filter="url(#filter5_d)">
<rect x="106" y="120" width="68" height="8" rx="2" fill="white"/>
<rect x="105.5" y="119.5" width="69" height="9" rx="2.5" stroke="black" stroke-opacity="0.08"/>
</g>
<rect x="106" y="133" width="22" height="2" rx="1" fill="#9FA6B2"/>
<g filter="url(#filter6_d)">
<rect x="106" y="138" width="144" height="8" rx="2" fill="white"/>
<rect x="105.5" y="137.5" width="145" height="9" rx="2.5" stroke="black" stroke-opacity="0.08"/>
</g>
<rect x="182" y="115" width="31" height="2" rx="1" fill="#9FA6B2"/>
<g filter="url(#filter7_d)">
<rect x="182" y="120" width="68" height="8" rx="2" fill="white"/>
<rect x="181.5" y="119.5" width="69" height="9" rx="2.5" stroke="black" stroke-opacity="0.08"/>
</g>
<rect x="30" y="107" width="220" height="1" fill="#D2D6DC"/>
</g>
<defs>
<filter id="filter0_d" x="103" y="45" width="74" height="14" filterUnits="userSpaceOnUse" color-interpolation-filters="sRGB">
<feFlood flood-opacity="0" result="BackgroundImageFix"/>
<feColorMatrix in="SourceAlpha" type="matrix" values="0 0 0 0 0 0 0 0 0 0 0 0 0 0 0 0 0 0 127 0"/>
<feOffset dy="1"/>
<feGaussianBlur stdDeviation="1"/>
<feColorMatrix type="matrix" values="0 0 0 0 0 0 0 0 0 0 0 0 0 0 0 0 0 0 0.04 0"/>
<feBlend mode="normal" in2="BackgroundImageFix" result="effect1_dropShadow"/>
<feBlend mode="normal" in="SourceGraphic" in2="effect1_dropShadow" result="shape"/>
</filter>
<filter id="filter1_d" x="103" y="63" width="150" height="14" filterUnits="userSpaceOnUse" color-interpolation-filters="sRGB">
<feFlood flood-opacity="0" result="BackgroundImageFix"/>
<feColorMatrix in="SourceAlpha" type="matrix" values="0 0 0 0 0 0 0 0 0 0 0 0 0 0 0 0 0 0 127 0"/>
<feOffset dy="1"/>
<feGaussianBlur stdDeviation="1"/>
<feColorMatrix type="matrix" values="0 0 0 0 0 0 0 0 0 0 0 0 0 0 0 0 0 0 0.04 0"/>
<feBlend mode="normal" in2="BackgroundImageFix" result="effect1_dropShadow"/>
<feBlend mode="normal" in="SourceGraphic" in2="effect1_dropShadow" result="shape"/>
</filter>
<filter id="filter2_d" x="103" y="81" width="150" height="22" filterUnits="userSpaceOnUse" color-interpolation-filters="sRGB">
<feFlood flood-opacity="0" result="BackgroundImageFix"/>
<feColorMatrix in="SourceAlpha" type="matrix" values="0 0 0 0 0 0 0 0 0 0 0 0 0 0 0 0 0 0 127 0"/>
<feOffset dy="1"/>
<feGaussianBlur stdDeviation="1"/>
<feColorMatrix type="matrix" values="0 0 0 0 0 0 0 0 0 0 0 0 0 0 0 0 0 0 0.04 0"/>
<feBlend mode="normal" in2="BackgroundImageFix" result="effect1_dropShadow"/>
<feBlend mode="normal" in="SourceGraphic" in2="effect1_dropShadow" result="shape"/>
</filter>
<filter id="filter3_d" x="179" y="45" width="74" height="14" filterUnits="userSpaceOnUse" color-interpolation-filters="sRGB">
<feFlood flood-opacity="0" result="BackgroundImageFix"/>
<feColorMatrix in="SourceAlpha" type="matrix" values="0 0 0 0 0 0 0 0 0 0 0 0 0 0 0 0 0 0 127 0"/>
<feOffset dy="1"/>
<feGaussianBlur stdDeviation="1"/>
<feColorMatrix type="matrix" values="0 0 0 0 0 0 0 0 0 0 0 0 0 0 0 0 0 0 0.04 0"/>
<feBlend mode="normal" in2="BackgroundImageFix" result="effect1_dropShadow"/>
<feBlend mode="normal" in="SourceGraphic" in2="effect1_dropShadow" result="shape"/>
</filter>
<filter id="filter4_d" x="-3" y="-2" width="286" height="22" filterUnits="userSpaceOnUse" color-interpolation-filters="sRGB">
<feFlood flood-opacity="0" result="BackgroundImageFix"/>
<feColorMatrix in="SourceAlpha" type="matrix" values="0 0 0 0 0 0 0 0 0 0 0 0 0 0 0 0 0 0 127 0"/>
<feOffset dy="1"/>
<feGaussianBlur stdDeviation="1"/>
<feColorMatrix type="matrix" values="0 0 0 0 0 0 0 0 0 0 0 0 0 0 0 0 0 0 0.04 0"/>
<feBlend mode="normal" in2="BackgroundImageFix" result="effect1_dropShadow"/>
<feBlend mode="normal" in="SourceGraphic" in2="effect1_dropShadow" result="shape"/>
</filter>
<filter id="filter5_d" x="103" y="118" width="74" height="14" filterUnits="userSpaceOnUse" color-interpolation-filters="sRGB">
<feFlood flood-opacity="0" result="BackgroundImageFix"/>
<feColorMatrix in="SourceAlpha" type="matrix" values="0 0 0 0 0 0 0 0 0 0 0 0 0 0 0 0 0 0 127 0"/>
<feOffset dy="1"/>
<feGaussianBlur stdDeviation="1"/>
<feColorMatrix type="matrix" values="0 0 0 0 0 0 0 0 0 0 0 0 0 0 0 0 0 0 0.04 0"/>
<feBlend mode="normal" in2="BackgroundImageFix" result="effect1_dropShadow"/>
<feBlend mode="normal" in="SourceGraphic" in2="effect1_dropShadow" result="shape"/>
</filter>
<filter id="filter6_d" x="103" y="136" width="150" height="14" filterUnits="userSpaceOnUse" color-interpolation-filters="sRGB">
<feFlood flood-opacity="0" result="BackgroundImageFix"/>
<feColorMatrix in="SourceAlpha" type="matrix" values="0 0 0 0 0 0 0 0 0 0 0 0 0 0 0 0 0 0 127 0"/>
<feOffset dy="1"/>
<feGaussianBlur stdDeviation="1"/>
<feColorMatrix type="matrix" values="0 0 0 0 0 0 0 0 0 0 0 0 0 0 0 0 0 0 0.04 0"/>
<feBlend mode="normal" in2="BackgroundImageFix" result="effect1_dropShadow"/>
<feBlend mode="normal" in="SourceGraphic" in2="effect1_dropShadow" result="shape"/>
</filter>
<filter id="filter7_d" x="179" y="118" width="74" height="14" filterUnits="userSpaceOnUse" color-interpolation-filters="sRGB">
<feFlood flood-opacity="0" result="BackgroundImageFix"/>
<feColorMatrix in="SourceAlpha" type="matrix" values="0 0 0 0 0 0 0 0 0 0 0 0 0 0 0 0 0 0 127 0"/>
<feOffset dy="1"/>
<feGaussianBlur stdDeviation="1"/>
<feColorMatrix type="matrix" values="0 0 0 0 0 0 0 0 0 0 0 0 0 0 0 0 0 0 0.04 0"/>
<feBlend mode="normal" in2="BackgroundImageFix" result="effect1_dropShadow"/>
<feBlend mode="normal" in="SourceGraphic" in2="effect1_dropShadow" result="shape"/>
</filter>
<clipPath id="clip0">
<rect width="280" height="140" fill="white"/>
</clipPath>
</defs>
</svg>
