<svg width="280" height="140" viewBox="0 0 280 140" fill="none" xmlns="http://www.w3.org/2000/svg">
  <rect width="280" height="140" fill="white" />
  <mask id="mask0" mask-type="alpha" maskUnits="userSpaceOnUse" x="0" y="0" width="280" height="140">
    <rect width="280" height="140" fill="#C4C4C4" />
  </mask>
  <g mask="url(#mask0)">
    <rect width="280" height="140" fill="#F4F5F7" />
    <g filter="url(#filter0_d)">
      <rect width="280" height="48" fill="white" />
      <rect x="-0.5" y="-0.5" width="281" height="49" stroke="black" stroke-opacity="0.04" />
    </g>
    <path
      d="M31.2114 28H32.6606V25.2969H34.1919C36.0396 25.2969 37.0317 24.1875 37.0317 22.6484C37.0317 21.1211 36.0513 20 34.2114 20H31.2114V28ZM32.6606 24.1055V21.2109H33.9888C35.0747 21.2109 35.5552 21.7969 35.5552 22.6484C35.5552 23.5 35.0747 24.1055 33.9966 24.1055H32.6606ZM39.8472 28.1211C40.7886 28.1211 41.3511 27.6797 41.6089 27.1758H41.6558V28H43.0151V23.9844C43.0151 22.3984 41.7222 21.9219 40.5776 21.9219C39.3159 21.9219 38.3472 22.4844 38.0347 23.5781L39.355 23.7656C39.4956 23.3555 39.894 23.0039 40.5854 23.0039C41.2417 23.0039 41.6011 23.3398 41.6011 23.9297V23.9531C41.6011 24.3594 41.1753 24.3789 40.1167 24.4922C38.9526 24.6172 37.8394 24.9648 37.8394 26.3164C37.8394 27.4961 38.7026 28.1211 39.8472 28.1211ZM40.2144 27.082C39.6245 27.082 39.2026 26.8125 39.2026 26.293C39.2026 25.75 39.6753 25.5234 40.3081 25.4336C40.6792 25.3828 41.4214 25.2891 41.605 25.1406V25.8477C41.605 26.5156 41.0659 27.082 40.2144 27.082ZM47.0464 30.3516C48.6675 30.3516 49.8628 29.6094 49.8628 28.0977V22H48.4683V22.9922H48.3901C48.1753 22.5586 47.7261 21.9219 46.6675 21.9219C45.2808 21.9219 44.1909 23.0078 44.1909 24.9805C44.1909 26.9375 45.2808 27.9141 46.6636 27.9141C47.6909 27.9141 48.1714 27.3633 48.3901 26.9219H48.4604V28.0586C48.4604 28.918 47.8745 29.2813 47.0698 29.2813C46.2183 29.2813 45.8433 28.8789 45.6714 28.5508L44.3979 28.8594C44.6558 29.6758 45.519 30.3516 47.0464 30.3516ZM47.0581 26.8047C46.1245 26.8047 45.6323 26.0781 45.6323 24.9727C45.6323 23.8828 46.1167 23.082 47.0581 23.082C47.9683 23.082 48.4683 23.8359 48.4683 24.9727C48.4683 26.1172 47.9604 26.8047 47.0581 26.8047ZM53.9683 28.1172C55.3667 28.1172 56.3276 27.4336 56.5776 26.3906L55.2573 26.2422C55.0659 26.75 54.5972 27.0156 53.9878 27.0156C53.0737 27.0156 52.4683 26.4141 52.4565 25.3867H56.6362V24.9531C56.6362 22.8477 55.3706 21.9219 53.894 21.9219C52.1753 21.9219 51.0542 23.1836 51.0542 25.0352C51.0542 26.918 52.1597 28.1172 53.9683 28.1172ZM52.4604 24.4336C52.5034 23.668 53.0698 23.0234 53.9136 23.0234C54.7261 23.0234 55.2729 23.6172 55.2808 24.4336H52.4604ZM63.5571 22H62.3735V20.5625H60.9595V22H60.1079V23.0937H60.9595V26.4297C60.9517 27.5586 61.772 28.1133 62.8345 28.082C63.2368 28.0703 63.5142 27.9922 63.6665 27.9414L63.4282 26.8359C63.3501 26.8555 63.1899 26.8906 63.0142 26.8906C62.6587 26.8906 62.3735 26.7656 62.3735 26.1953V23.0937H63.5571V22ZM64.7397 28H66.1538V22H64.7397V28ZM65.4507 21.1484C65.8999 21.1484 66.2671 20.8047 66.2671 20.3828C66.2671 19.957 65.8999 19.6133 65.4507 19.6133C64.9976 19.6133 64.6304 19.957 64.6304 20.3828C64.6304 20.8047 64.9976 21.1484 65.4507 21.1484ZM70.604 22H69.4204V20.5625H68.0063V22H67.1548V23.0937H68.0063V26.4297C67.9985 27.5586 68.8188 28.1133 69.8813 28.082C70.2837 28.0703 70.561 27.9922 70.7134 27.9414L70.4751 26.8359C70.397 26.8555 70.2368 26.8906 70.061 26.8906C69.7056 26.8906 69.4204 26.7656 69.4204 26.1953V23.0937H70.604V22ZM73.3296 20H71.9155V28H73.3296V20ZM77.4399 28.1172C78.8384 28.1172 79.7993 27.4336 80.0493 26.3906L78.729 26.2422C78.5376 26.75 78.0688 27.0156 77.4595 27.0156C76.5454 27.0156 75.9399 26.4141 75.9282 25.3867H80.1079V24.9531C80.1079 22.8477 78.8423 21.9219 77.3657 21.9219C75.647 21.9219 74.5259 23.1836 74.5259 25.0352C74.5259 26.918 75.6313 28.1172 77.4399 28.1172ZM75.9321 24.4336C75.9751 23.668 76.5415 23.0234 77.3853 23.0234C78.1978 23.0234 78.7446 23.6172 78.7524 24.4336H75.9321Z"
      fill="#4B5563" />
    <g filter="url(#filter1_dd)">
      <rect x="226" y="19" width="24" height="10" rx="3" fill="#4B5563" />
    </g>
    <rect x="198" y="19" width="24" height="10" rx="3" fill="#E5E7EB" />
  </g>
  <defs>
    <filter id="filter0_d" x="-3" y="-2" width="286" height="54" filterUnits="userSpaceOnUse"
      color-interpolation-filters="sRGB">
      <feFlood flood-opacity="0" result="BackgroundImageFix" />
      <feColorMatrix in="SourceAlpha" type="matrix" values="0 0 0 0 0 0 0 0 0 0 0 0 0 0 0 0 0 0 127 0" />
      <feOffset dy="1" />
      <feGaussianBlur stdDeviation="1" />
      <feColorMatrix type="matrix" values="0 0 0 0 0 0 0 0 0 0 0 0 0 0 0 0 0 0 0.04 0" />
      <feBlend mode="normal" in2="BackgroundImageFix" result="effect1_dropShadow" />
      <feBlend mode="normal" in="SourceGraphic" in2="effect1_dropShadow" result="shape" />
    </filter>
    <filter id="filter1_dd" x="223" y="17" width="30" height="16" filterUnits="userSpaceOnUse"
      color-interpolation-filters="sRGB">
      <feFlood flood-opacity="0" result="BackgroundImageFix" />
      <feColorMatrix in="SourceAlpha" type="matrix" values="0 0 0 0 0 0 0 0 0 0 0 0 0 0 0 0 0 0 127 0" />
      <feOffset dy="1" />
      <feGaussianBlur stdDeviation="1" />
      <feColorMatrix type="matrix" values="0 0 0 0 0 0 0 0 0 0 0 0 0 0 0 0 0 0 0.06 0" />
      <feBlend mode="normal" in2="BackgroundImageFix" result="effect1_dropShadow" />
      <feColorMatrix in="SourceAlpha" type="matrix" values="0 0 0 0 0 0 0 0 0 0 0 0 0 0 0 0 0 0 127 0" />
      <feOffset dy="1" />
      <feGaussianBlur stdDeviation="1.5" />
      <feColorMatrix type="matrix" values="0 0 0 0 0 0 0 0 0 0 0 0 0 0 0 0 0 0 0.1 0" />
      <feBlend mode="normal" in2="effect1_dropShadow" result="effect2_dropShadow" />
      <feBlend mode="normal" in="SourceGraphic" in2="effect2_dropShadow" result="shape" />
    </filter>
  </defs>
</svg>