<svg width="280" height="140" viewBox="0 0 280 140" fill="none" xmlns="http://www.w3.org/2000/svg">
<rect width="280" height="140" fill="white"/>
<rect width="280" height="140" fill="white"/>
<rect x="72" y="36" width="136" height="2" rx="1" fill="#D2D6DC"/>
<rect x="72" y="66" width="136" height="2" rx="1" fill="#D2D6DC"/>
<rect x="72" y="96" width="136" height="2" rx="1" fill="#D2D6DC"/>
<rect x="72" y="126" width="136" height="2" rx="1" fill="#D2D6DC"/>
<rect x="72" y="41" width="140" height="2" rx="1" fill="#D2D6DC"/>
<rect x="72" y="71" width="132" height="2" rx="1" fill="#D2D6DC"/>
<rect x="72" y="101" width="132" height="2" rx="1" fill="#D2D6DC"/>
<rect x="72" y="131" width="138" height="2" rx="1" fill="#D2D6DC"/>
<rect x="72" y="46" width="138" height="2" rx="1" fill="#D2D6DC"/>
<rect x="72" y="76" width="138" height="2" rx="1" fill="#D2D6DC"/>
<rect x="72" y="106" width="138" height="2" rx="1" fill="#D2D6DC"/>
<rect x="72" y="136" width="130" height="2" rx="1" fill="#D2D6DC"/>
<rect x="72" y="51" width="130" height="2" rx="1" fill="#D2D6DC"/>
<rect x="72" y="81" width="136" height="2" rx="1" fill="#D2D6DC"/>
<rect x="72" y="111" width="136" height="2" rx="1" fill="#D2D6DC"/>
<rect x="72" y="56" width="74" height="2" rx="1" fill="#D2D6DC"/>
<rect x="72" y="86" width="114" height="2" rx="1" fill="#D2D6DC"/>
<rect x="72" y="116" width="114" height="2" rx="1" fill="#D2D6DC"/>
<rect x="72" y="24" width="92" height="4" rx="2" fill="#6B7280"/>
</svg>
